<svg xmlns="http://www.w3.org/2000/svg" viewBox="0 0 1722.17 364.36"><defs><style>.cls-1{fill:#060329;}</style></defs><g id="Calque_2" data-name="Calque 2"><g id="Calque_1-2" data-name="Calque 1"><path class="cls-1" d="M215.76,270.68c0,56.88-51,90.22-107.88,90.22S0,327.56,0,270.68H73.55c0,22.56,18.15,28.44,34.33,28.44s34.33-8.34,34.33-25.5c0-12.26-16.19-23.54-38.25-26.48-51.49-6.37-101-37.76-101-79.44,0-53.94,48.06-87.28,104.94-87.28s104.94,33.34,104.94,90.23H139.26c0-22.56-15.2-28.44-31.38-28.44S76.5,148.09,76.5,165.74c0,15.69,32.36,27.95,60.8,31.38C176,201.54,215.76,226.06,215.76,270.68Z"/><path class="cls-1" d="M326.09,0V88.26h73.56V151H326.09v69.63a73.47,73.47,0,0,0,73.56,73.56V360.9h-9.81c-81.4,0-137.3-62.76-137.3-140.24V0Z"/><path class="cls-1" d="M722.8,220.66V360.9H654.15V320.21a93.21,93.21,0,0,1-77,40.69c-80.42,0-145.64-62.76-145.64-140.24S496.75,80.42,577.17,80.42,722.8,143.19,722.8,220.66Zm-70.61,0a73.56,73.56,0,1,0-73.55,73.56A73.45,73.45,0,0,0,652.19,220.66Z"/><path class="cls-1" d="M904.24,80.42h9.81v66.69a73.46,73.46,0,0,0-73.56,73.55V360.9H766.94V220.66C766.94,143.19,822.84,80.42,904.24,80.42Z"/><path class="cls-1" d="M1018,0V88.26h73.55V151H1018v69.63a73.46,73.46,0,0,0,73.55,73.56V360.9h-9.81c-81.39,0-137.3-62.76-137.3-140.24V0Z"/><path class="cls-1" d="M1584.87,80.42c81.4,0,137.3,62.77,137.3,140.24V360.9h-73.55V220.66c0-40.7-23-73.55-63.75-73.55s-63.75,32.85-63.75,73.55V360.9h-73.55V220.66C1447.57,143.19,1503.47,80.42,1584.87,80.42Z"/><path class="cls-1" d="M1379.58,132.3l-76.47-44.15a53.54,53.54,0,0,0-53.4,0l-76.46,44.15a53.54,53.54,0,0,0-26.7,46.24v88.3a53.55,53.55,0,0,0,26.7,46.24l76.46,44.15a53.56,53.56,0,0,0,53.4,0l76.47-44.15a53.56,53.56,0,0,0,26.69-46.24v-88.3A53.55,53.55,0,0,0,1379.58,132.3ZM1176.92,306.71a46.17,46.17,0,0,1-23-39.87v-88.3a46.18,46.18,0,0,1,23-39.88l76.47-44.15a46,46,0,0,1,18.11-5.88,158.38,158.38,0,0,0-19,42.46c-9.82,36.18-2,68.3,22.58,92.9,13.16,13.15,21.35,28.43,24.35,45.39,2.4,13.61,1.5,28.36-2.69,43.84a156.25,156.25,0,0,1-20,43.79,46.08,46.08,0,0,1-23.35-6.15Z"/></g></g></svg>